<svg xmlns="http://www.w3.org/2000/svg" xmlns:xlink="http://www.w3.org/1999/xlink" x="0" y="0" width="491" height="179" style="
        width:491px;
        height:179px;
        background: transparent;
        fill: none;
">
        <svg xmlns="http://www.w3.org/2000/svg"/>
        
        <svg xmlns="http://www.w3.org/2000/svg" class="role-diagram-draw-area"><g class="shapes-region" style="stroke: black; fill: none;"><g class="grouped-shape"><g class="composite-shape"><path class="real" d=" M32,101 L33.55,106.24 L37.88,102.91 L36.05,108.06 L41.51,107.91 L37,111 L41.51,114.09 L36.05,113.94 L37.88,119.09 L33.55,115.76 L32,121 L30.45,115.76 L26.12,119.09 L27.95,113.94 L22.49,114.09 L27,111 L22.49,107.91 L27.95,108.06 L26.12,102.91 L30.45,106.24 Z" style="stroke-width: 1; stroke: rgb(0, 0, 0); fill: none; fill-opacity: 1;"/></g><g class="composite-shape"><path class="real" d=" M7.34,70 L56.66,70 L56.66,173 L7.34,173 Z" style="stroke-width: 1; stroke: rgb(0, 0, 0); fill: none; fill-opacity: 1;"/></g><g class="composite-shape"><path class="real" d=" M19.02,113.94 L44.98,113.94 L44.98,173 L19.02,173 Z" style="stroke-width: 1; stroke: rgb(0, 0, 0); fill: none; fill-opacity: 1;"/></g><g class="composite-shape"><path class="real" d=" M7.34,70 L56.66,70 L56.66,92.5 L7.34,92.5 Z" style="stroke-width: 1; stroke: rgb(0, 0, 0); fill: none; fill-opacity: 1;"/></g><g class="arrow-line"><path class="connection real" stroke-dasharray="" d="  M56.66,81.25 L98.2,81.25" style="stroke: rgb(0, 0, 0); stroke-width: 1; fill: none; fill-opacity: 1;"/><g stroke="none" fill="#000" transform="matrix(-1,1.2246467991473532e-16,-1.2246467991473532e-16,-1,101.19998168945311,81.25000000000001)" style="stroke: none; fill: rgb(0, 0, 0); stroke-width: 1;"><path d=" M8.93,-4.29 L0,0 L8.93,4.29 Z"/></g></g><g class="arrow-line"><path class="connection real" stroke-dasharray="" d="  M213.57,81.25 L255.12,81.25" style="stroke: rgb(0, 0, 0); stroke-width: 1; fill: none; fill-opacity: 1;"/><g stroke="none" fill="#000" transform="matrix(-1,1.2246467991473532e-16,-1.2246467991473532e-16,-1,258.11871337890625,81.25)" style="stroke: none; fill: rgb(0, 0, 0); stroke-width: 1;"><path d=" M8.93,-4.29 L0,0 L8.93,4.29 Z"/></g></g><g class="arrow-line"><path class="connection real" stroke-dasharray="" d="  M419.12,81.25 L457.66,81.25" style="stroke: rgb(0, 0, 0); stroke-width: 1; fill: none; fill-opacity: 1;"/><g stroke="none" fill="#000" transform="matrix(-1,1.2246467991473532e-16,-1.2246467991473532e-16,-1,460.6624450683594,81.25)" style="stroke: none; fill: rgb(0, 0, 0); stroke-width: 1;"><path d=" M8.93,-4.29 L0,0 L8.93,4.29 Z"/></g><g stroke="none" fill="#000" transform="matrix(1,0,0,1,416.11871337890625,81.25)" style="stroke: none; fill: rgb(0, 0, 0); stroke-width: 1;"><path d=" M8.93,-4.29 L0,0 L8.93,4.29 Z"/></g></g><g class="arrow-line"><path class="connection real" stroke-dasharray="" d="  M295.12,68.75 L295.12,24 L44.98,24 L44.98,65.75" style="stroke: rgb(0, 0, 0); stroke-width: 1; fill: none; fill-opacity: 1;"/><g stroke="none" fill="#000" transform="matrix(-1.8369701987210297e-16,-1,1,-1.8369701987210297e-16,44.97813415527344,68.75)" style="stroke: none; fill: rgb(0, 0, 0); stroke-width: 1;"><path d=" M8.93,-4.29 L0,0 L8.93,4.29 Z"/></g></g><g class="arrow-line"><path class="connection real" stroke-dasharray="" d="  M367,68.75 L367,5 L19.02,5 L19.02,65.75" style="stroke: rgb(0, 0, 0); stroke-width: 1; fill: none; fill-opacity: 1;"/><g stroke="none" fill="#000" transform="matrix(-1.8369701987210297e-16,-1,1,-1.8369701987210297e-16,19.021865844726562,68.75)" style="stroke: none; fill: rgb(0, 0, 0); stroke-width: 1;"><path d=" M8.93,-4.29 L0,0 L8.93,4.29 Z"/></g></g><g class="arrow-line"><path class="connection real" stroke-dasharray="6 6" d="  M111.02,138 L111.02,96.75" style="stroke: rgb(0, 0, 0); stroke-width: 1; fill: none; fill-opacity: 1;"/><g stroke="none" fill="#000" transform="matrix(3.061616997868383e-16,1,-1,3.061616997868383e-16,111.02186584472656,93.75)" style="stroke: none; fill: rgb(0, 0, 0); stroke-width: 1;"><path d=" M8.93,-4.29 L0,0 L8.93,4.29 Z"/></g></g><g class="arrow-line"><path class="connection real" stroke-dasharray="" d="  M109,46.38 L78.93,46.38 L78.93,81.25" style="stroke: rgb(0, 0, 0); stroke-width: 1; fill: none; fill-opacity: 1;"/><g stroke="none" fill="#000" transform="matrix(-1,1.2246467991473532e-16,-1.2246467991473532e-16,-1,112,46.375)" style="stroke: none; fill: rgb(0, 0, 0); stroke-width: 1;"><path d=" M8.93,-4.29 L0,0 L8.93,4.29 Z"/></g></g><g class="arrow-line"><path class="connection real" stroke-dasharray="" d="  M204.07,46.38 L235.85,46.38 L235.85,81.25" style="stroke: rgb(0, 0, 0); stroke-width: 1; fill: none; fill-opacity: 1;"/><g stroke="none" fill="#000" transform="matrix(1,0,0,1,201.07498168945312,46.375)" style="stroke: none; fill: rgb(0, 0, 0); stroke-width: 1;"><path d=" M8.93,-4.29 L0,0 L8.93,4.29 Z"/></g></g></g><g/></g><g/><g><g><rect rx="0" ry="0" x="113.07498168945312" y="33.875" width="88" height="25" style="stroke: rgb(0, 0, 0); stroke-width: 1; fill: none; fill-opacity: 1;"/></g><g><rect rx="0" ry="0" x="71" y="138" width="173" height="25" style="stroke: rgb(0, 0, 0); stroke-width: 1; fill: none; fill-opacity: 1;"/></g><g><rect rx="0" ry="0" x="459.6624450683594" y="68.75" width="25" height="25" style="stroke: rgb(0, 0, 0); stroke-width: 1; fill: none; fill-opacity: 1;"/></g><g><rect rx="0" ry="0" x="257.11871337890625" y="68.75" width="159" height="25" style="stroke: rgb(0, 0, 0); stroke-width: 1; fill: none; fill-opacity: 1;"/></g><g><rect rx="0" ry="0" x="100.57498168945312" y="68.75" width="113" height="25" style="stroke: rgb(0, 0, 0); stroke-width: 1; fill: none; fill-opacity: 1;"/></g></g><g/></svg>
        <svg xmlns="http://www.w3.org/2000/svg" xmlns:xlink="http://www.w3.org/1999/xlink" width="489" height="177" style="width:489px;height:177px;font-family:ThickerLm-Math, ThickerLm, Asana-Math, Asana;background:transparent;"><g><g><g><text x="117.5625" y="38.27496337890625" style="white-space:pre;stroke:none;fill:rgb(0,0,0);fill-opacity:1;font-size:15px;font-family:&quot;Cambria Math&quot;, Arial, Helvetica, sans-serif;font-weight:400;font-style:normal;dominant-baseline:text-before-edge;text-decoration:none solid rgb(0, 0, 0);">Oscilloscope</text></g></g></g><g><g><g><text x="75.5" y="142.39996337890625" style="white-space:pre;stroke:none;fill:rgb(0,0,0);fill-opacity:1;font-size:15px;font-family:&quot;Cambria Math&quot;, Arial, Helvetica, sans-serif;font-weight:400;font-style:normal;dominant-baseline:text-before-edge;text-decoration:none solid rgb(0, 0, 0);">Precision Pulse Generator</text></g></g></g><g><g><g><text x="370.5" y="49.14996337890625" style="white-space:pre;stroke:none;fill:rgb(0,0,0);fill-opacity:1;font-size:15px;font-family:&quot;Cambria Math&quot;, Arial, Helvetica, sans-serif;font-weight:400;font-style:normal;dominant-baseline:text-before-edge;text-decoration:none solid rgb(0, 0, 0);">High Voltage</text></g></g></g><g><g><g><text x="250.5374755859375" y="48.14996337890625" style="white-space:pre;stroke:none;fill:rgb(0,0,0);fill-opacity:1;font-size:15px;font-family:&quot;Cambria Math&quot;, Arial, Helvetica, sans-serif;font-weight:400;font-style:normal;dominant-baseline:text-before-edge;text-decoration:none solid rgb(0, 0, 0);">Power</text></g></g></g><g><g><g><text x="464.1500244140625" y="73.14996337890625" style="white-space:pre;stroke:none;fill:rgb(0,0,0);fill-opacity:1;font-size:15px;font-family:&quot;Cambria Math&quot;, Arial, Helvetica, sans-serif;font-weight:400;font-style:normal;dominant-baseline:text-before-edge;text-decoration:none solid rgb(0, 0, 0);">PC</text></g></g></g><g><g><g><text x="261.61248779296875" y="73.14996337890625" style="white-space:pre;stroke:none;fill:rgb(0,0,0);fill-opacity:1;font-size:15px;font-family:&quot;Cambria Math&quot;, Arial, Helvetica, sans-serif;font-weight:400;font-style:normal;dominant-baseline:text-before-edge;text-decoration:none solid rgb(0, 0, 0);">Multi-Channel Analyzer</text></g></g></g><g><g><g><text x="104.6875" y="73.14996337890625" style="white-space:pre;stroke:none;fill:rgb(0,0,0);fill-opacity:1;font-size:15px;font-family:&quot;Cambria Math&quot;, Arial, Helvetica, sans-serif;font-weight:400;font-style:normal;dominant-baseline:text-before-edge;text-decoration:none solid rgb(0, 0, 0);">Linear Amplifier</text></g></g></g><g><g><g><text x="7.512481689453125" y="73.14996337890625" style="white-space:pre;stroke:none;fill:rgb(0,0,0);fill-opacity:1;font-size:15px;font-family:&quot;Cambria Math&quot;, Arial, Helvetica, sans-serif;font-weight:400;font-style:normal;dominant-baseline:text-before-edge;text-decoration:none solid rgb(0, 0, 0);">Preamp</text></g></g></g></svg>
</svg>
