<svg xmlns="http://www.w3.org/2000/svg" xmlns:xlink="http://www.w3.org/1999/xlink" x="0" y="0" width="674.6000366210938" height="350.3999938964844" style="
        width:674.6000366210938px;
        height:350.3999938964844px;
        background: transparent;
        fill: none;
">
        <svg xmlns="http://www.w3.org/2000/svg"/>
        
        <svg xmlns="http://www.w3.org/2000/svg" class="role-diagram-draw-area" style="overflow: visible;"><g class="shapes-region" style="stroke: black; fill: none;"><g class="grouped-shape"><g class="composite-shape"><path class="real" d=" M602.79,236.36 L624,257.57 L581.57,300 L560.36,278.79 Z" style="stroke-width: 1; stroke: rgb(0, 0, 0); fill: none; fill-opacity: 1;"/></g><g class="composite-shape"><defs><!-- react-text: 120704 --> <!-- /react-text --><pattern id="_pgfnyjkn863gdg-full-view" x="4" y="4" width="8" height="8" patternUnits="userSpaceOnUse"><path d="M0,0 L8,0" style="stroke: rgb(0, 0, 0); stroke-opacity: 1; stroke-width: 1; fill: none;"/><path d="M0,8 L8,8" style="stroke: rgb(0, 0, 0); stroke-opacity: 1; stroke-width: 1; fill: none;"/></pattern></defs><path class="real" d=" M632.89,195.75 L590.46,238.18 L562.18,209.9 L604.61,167.47 L632.89,195.75 Z  M519.75,308.89 L491.47,280.61 L533.9,238.18 L562.18,266.46 L519.75,308.89 Z" style="stroke-width: 1; stroke: rgb(0, 0, 0); fill: url(&quot;#_pgfnyjkn863gdg-full-view&quot;); fill-opacity: 1;"/></g><g class="composite-shape"><path class="real" d=" M624,257.57 L666.43,300 L624,342.43 L581.57,300 Z" style="stroke-width: 1; stroke: rgb(0, 0, 0); fill: none; fill-opacity: 1;"/></g></g><g class="grouped-shape"><g class="composite-shape"><path class="real" d=" M96,75 L97.55,80.24 L101.88,76.91 L100.05,82.06 L105.51,81.91 L101,85 L105.51,88.09 L100.05,87.94 L101.88,93.09 L97.55,89.76 L96,95 L94.45,89.76 L90.12,93.09 L91.95,87.94 L86.49,88.09 L91,85 L86.49,81.91 L91.95,82.06 L90.12,76.91 L94.45,80.24 Z" style="stroke-width: 1; stroke: rgb(0, 0, 0); fill: none; fill-opacity: 1;"/></g><g class="composite-shape"><defs><!-- react-text: 120719 --> <!-- /react-text --><pattern id="_pgfz1t7kwb26dg-full-view" x="0" y="0" width="11.313708498984761" height="11.313708498984761" patternTransform="rotate(45,0,0)" patternUnits="userSpaceOnUse"><path d="M0,0 L0,11.313708498984761" style="stroke: rgb(0, 0, 0); stroke-opacity: 1; stroke-width: 1; fill: none;"/><path d="M5.656854249492381,0 L5.656854249492381,11.313708498984761" style="stroke: rgb(0, 0, 0); stroke-opacity: 1; stroke-width: 1; fill: none;"/><path d="M11.313708498984761,0 L11.313708498984761,11.313708498984761" style="stroke: rgb(0, 0, 0); stroke-opacity: 1; stroke-width: 1; fill: none;"/></pattern></defs><path class="real" d=" M165,5 L165,65 L125,65 L125,55 L65,55 L65,115 L125,115 L125,105 L165,105 L165,165 L5,165 L5,5 L165,5 Z" style="stroke-width: 1; stroke: rgb(0, 0, 0); fill: url(&quot;#_pgfz1t7kwb26dg-full-view&quot;); fill-opacity: 1;"/></g><g class="composite-shape"><defs><!-- react-text: 120728 --> <!-- /react-text --><pattern id="_pgf89gvuxq8jdg-full-view" x="0" y="0" width="11.313708498984761" height="11.313708498984761" patternTransform="rotate(45,0,0)" patternUnits="userSpaceOnUse"><path d="M0,0 L0,11.313708498984761" style="stroke: rgb(0, 0, 0); stroke-opacity: 1; stroke-width: 1; fill: none;"/><path d="M5.656854249492381,0 L5.656854249492381,11.313708498984761" style="stroke: rgb(0, 0, 0); stroke-opacity: 1; stroke-width: 1; fill: none;"/><path d="M11.313708498984761,0 L11.313708498984761,11.313708498984761" style="stroke: rgb(0, 0, 0); stroke-opacity: 1; stroke-width: 1; fill: none;"/></pattern></defs><path class="real" d=" M275,5 L275,65 L235,65 L235,5 L275,5 Z  M275,165 L235,165 L235,105 L275,105 L275,165 Z" style="stroke-width: 1; stroke: rgb(0, 0, 0); fill: url(&quot;#_pgf89gvuxq8jdg-full-view&quot;); fill-opacity: 1;"/></g></g><g class="grouped-shape"><g class="arrow-line"><path class="connection real" stroke-dasharray="6 6" d="  M104.39,89.39 L513.39,89.39" style="stroke: rgb(0, 0, 0); stroke-width: 1; fill: none; fill-opacity: 1;"/></g><g class="composite-shape"><path class="real" d=" M403.39,89.39 C403.39,83.87 407.87,79.39 413.39,79.39 C418.92,79.39 423.39,83.87 423.39,89.39 C423.39,94.92 418.92,99.39 413.39,99.39 C407.87,99.39 403.39,94.92 403.39,89.39 Z" style="stroke-width: 1; stroke: rgb(0, 0, 0); fill: rgb(0, 0, 0); fill-opacity: 1;"/></g><g class="arrow-line"><path class="connection real" stroke-dasharray="6 6" d="  M413.39,89.39 L592.18,268.18" style="stroke: rgb(0, 0, 0); stroke-width: 1; fill: none; fill-opacity: 1;"/></g><g class="composite-shape"><path class="real" d=" M443.39,89.39 C443.39,89.39 443.39,89.39 443.39,89.39 C443.39,89.39 443.39,89.39 443.39,89.39 C443.39,97.68 440.04,105.18 434.61,110.61 L413.39,89.39 Z" style="stroke-width: 1; stroke: none; fill: none; fill-opacity: 1;"/><path class="real" d=" M443.39,89.39 C443.39,89.39 443.39,89.39 443.39,89.39 C443.39,89.39 443.39,89.39 443.39,89.39 C443.39,97.68 440.04,105.18 434.61,110.61" style="stroke-width: 1; stroke: rgb(0, 0, 0); fill: none; fill-opacity: 1;"/></g></g><g/></g><g/><g/><g/></svg>
        <svg xmlns="http://www.w3.org/2000/svg" xmlns:xlink="http://www.w3.org/1999/xlink" width="673" height="348.8000183105469" style="width:673px;height:348.8000183105469px;font-family:ThickerLm-Math, ThickerLm, Asana-Math, Asana;background:transparent;"><g><g><g><g transform="matrix(1,0,0,1,467.11871337890625,167.38751220703125)"><path transform="matrix(0.017,0,0,-0.017,0,0)" d="M515 426C466 337 429 245 391 150C389 188 382 254 350 334C326 396 285 446 213 446C84 446 14 292 14 259C14 244 28 244 37 244C40 244 44 250 45 253C83 365 189 366 200 366C346 366 358 196 358 116C358 55 353 39 346 19C324 -55 294 -169 294 -197C294 -209 300 -220 311 -220C329 -220 336 -193 347 -156C370 -72 380 -15 384 16C386 29 388 43 392 55C424 154 488 302 528 381C535 393 548 414 548 421C548 436 531 436 531 436C528 436 519 435 515 426ZM696 670C698 693 679 710 657 710C635 710 616 693 618 670L640 423C640 421 642 418 644 418L670 418C672 418 674 421 674 423Z" stroke="rgb(0,0,0)" stroke-opacity="1" stroke-width="8" fill="rgb(0,0,0)" fill-opacity="1"></path></g></g></g></g><g><g><g><g transform="matrix(1,0,0,1,204.70001220703125,107.1875)"><path transform="matrix(0.017,0,0,-0.017,0,0)" d="M515 426C466 337 429 245 391 150C389 188 382 254 350 334C326 396 285 446 213 446C84 446 14 292 14 259C14 244 28 244 37 244C40 244 44 250 45 253C83 365 189 366 200 366C346 366 358 196 358 116C358 55 353 39 346 19C324 -55 294 -169 294 -197C294 -209 300 -220 311 -220C329 -220 336 -193 347 -156C370 -72 380 -15 384 16C386 29 388 43 392 55C424 154 488 302 528 381C535 393 548 414 548 421C548 436 531 436 531 436C528 436 519 435 515 426Z" stroke="rgb(0,0,0)" stroke-opacity="1" stroke-width="8" fill="rgb(0,0,0)" fill-opacity="1"></path></g></g></g></g><g><g><g><g transform="matrix(1,0,0,1,446.92498779296875,109.38751220703125)"><path transform="matrix(0.017,0,0,-0.017,0,0)" d="M342 327C331 281 310 199 274 130C239 62 202 16 162 16C133 16 112 40 112 133C112 175 117 229 143 326ZM384 562C384 514 377 466 353 368L154 368C170 430 191 508 229 576C256 625 293 678 334 678C378 678 384 620 384 562ZM460 500C460 565 442 710 335 710C191 710 38 423 38 194C38 100 66 -16 162 -16C308 -16 460 276 460 500Z" stroke="rgb(0,0,0)" stroke-opacity="1" stroke-width="8" fill="rgb(0,0,0)" fill-opacity="1"></path></g></g></g></g><g><g><g><g><g><g><g transform="matrix(1,0,0,1,78.0875244140625,106.9)"><path transform="matrix(0.0119,0,0,-0.0119,0,0)" d="M419 -4C421 -4 424 -3 424 0L424 31C424 33 422 36 419 36L387 36C297 36 298 45 298 79L298 640C298 665 296 670 271 670C270 670 269 670 268 669C208 607 121 606 89 606C87 606 84 605 84 602L84 571C84 569 86 566 89 566C109 566 163 566 216 590L216 79C216 46 217 36 127 36L95 36C93 36 90 34 90 31L90 0C90 -2 92 -4 95 -4C130 -1 217 -2 257 -2C297 -2 384 -1 419 -4ZM662 348C662 333 675 332 691 332L735 332C813 332 850 268 850 171C850 37 783 10 741 10C701 10 633 26 597 77C629 77 658 99 658 137C658 176 629 198 598 198C572 198 538 182 538 135C538 40 634 -26 744 -26C868 -26 962 66 962 171C962 251 904 327 806 353C881 384 934 451 934 528C934 614 843 670 746 670C644 670 564 609 564 530C564 495 589 474 620 474C653 474 676 498 676 529C676 575 637 582 617 583C649 624 708 636 742 636C781 636 834 616 834 529C834 517 831 460 806 417C777 371 746 368 721 367C713 367 689 364 682 364C674 364 662 361 662 348ZM1490 644C1490 646 1488 648 1485 648L1242 648C1119 648 1121 661 1118 677C1118 679 1116 680 1114 680L1089 680C1087 680 1085 679 1085 677L1052 471C1052 469 1053 466 1056 466L1081 466C1083 466 1085 467 1085 469C1088 485 1098 547 1109 558C1117 562 1191 562 1204 562L1402 562L1295 412C1204 276 1172 136 1172 33C1172 24 1171 -26 1222 -26C1272 -26 1272 24 1272 33L1272 84C1272 139 1275 193 1283 247C1287 270 1302 355 1345 416L1480 606C1489 618 1490 623 1490 644Z" stroke="rgb(0,0,0)" stroke-opacity="1" stroke-width="8" fill="rgb(0,0,0)" fill-opacity="1"></path></g></g></g></g></g><g><g transform="matrix(1,0,0,1,97.125,114.39999389648438)"><path transform="matrix(0.017,0,0,-0.017,0,0)" d="M670 233C670 243 669 254 652 254C637 254 637 243 636 234C628 93 523 14 416 14C356 14 164 46 164 341C164 637 356 670 415 670C521 670 609 581 629 436C631 422 633 416 649 416C668 416 670 423 670 444L670 681C670 697 669 710 654 710C649 710 642 708 634 695L587 626C551 661 499 710 404 710C214 710 52 548 52 342C52 133 215 -26 404 -26C570 -26 670 115 670 233ZM1009 426C971 452 930 452 915 452C791 452 750 383 750 325C750 289 767 260 795 237C828 210 857 204 929 190C952 186 1030 170 1030 102C1030 54 997 16 921 16C840 16 805 70 786 154C783 167 781 174 768 174C751 174 750 162 750 145L750 13C750 -3 751 -16 766 -16C779 -16 794 7 811 26C855 -14 900 -16 921 -16C1038 -16 1086 54 1086 128C1086 183 1055 214 1043 226C1009 259 969 267 927 275C870 286 808 300 808 353C808 385 831 424 915 424C1021 424 1026 339 1028 308C1029 294 1044 294 1044 294C1061 294 1062 305 1062 323L1062 424C1062 440 1061 452 1046 452C1036 452 1020 436 1009 426Z" stroke="rgb(0,0,0)" stroke-opacity="1" stroke-width="8" fill="rgb(0,0,0)" fill-opacity="1"></path></g></g></g></g><g><g><g><text x="606.5000610351562" y="307.4266480286916" style="white-space:pre;stroke:none;fill:rgb(0,0,0);fill-opacity:1;font-size:18px;font-family:&quot;Computer Modern Serif&quot;, serif;font-weight:400;font-style:normal;dominant-baseline:auto;text-decoration:none solid rgb(0, 0, 0);">探头</text></g></g></g><g><g><g><g transform="matrix(1,0,0,1,606.0750122070312,243.14999389648438)"><path transform="matrix(0.017,0,0,-0.017,0,0)" d="M716 648C718 648 720 649 720 652L720 683C720 685 719 687 716 687L599 685L482 687C480 687 478 686 478 683L478 652C478 650 479 648 482 648C583 648 580 604 580 578L580 166L236 673C227 686 222 688 203 688L33 688C31 688 28 686 28 683L28 652C28 650 30 648 33 648L62 648C77 648 97 647 112 646C134 643 132 645 132 627L132 105C132 79 134 36 33 36C31 36 28 34 28 31L28 0C28 -2 30 -4 33 -4L150 -2L267 -4C269 -4 272 -3 272 0L272 31C272 33 270 36 267 36C166 36 168 79 168 105L168 613C168 613 169 611 170 610L578 10C586 -2 591 -4 599 -4C617 -4 618 8 618 26L618 578C618 604 615 648 716 648ZM1062 140C1062 48 992 16 949 16C902 16 864 49 864 96C864 148 901 227 1062 235ZM1238 89L1238 145C1238 147 1236 150 1233 150L1208 150C1206 150 1204 148 1204 145L1204 89C1204 33 1180 30 1172 30C1144 30 1140 70 1140 75L1140 275C1140 317 1139 358 1102 396C1062 436 1011 452 962 452C879 452 806 405 806 335C806 303 829 284 857 284C887 284 908 306 908 334C908 346 902 379 861 384C887 411 931 422 960 422C1006 422 1062 385 1062 298L1062 265C1012 262 942 259 880 229C804 194 778 141 778 95C778 9 879 -16 942 -16C1004 -16 1049 19 1071 61C1080 25 1106 -10 1151 -10C1173 -10 1238 5 1238 89ZM1583 -4C1585 -4 1588 -3 1588 0L1588 31C1588 33 1586 36 1583 36L1557 36C1478 36 1480 44 1480 78L1480 605C1480 639 1478 648 1557 648L1583 648C1585 648 1588 649 1588 652L1588 683C1588 685 1586 687 1583 687C1548 684 1469 684 1431 684C1392 684 1313 684 1278 687C1276 687 1274 686 1274 683L1274 652C1274 650 1275 648 1278 648L1304 648C1383 648 1382 639 1382 605L1382 78C1382 44 1383 36 1304 36L1278 36C1276 36 1274 34 1274 31L1274 0C1274 -2 1275 -4 1278 -4C1313 -1 1392 -2 1430 -2C1469 -2 1548 -1 1583 -4Z" stroke="rgb(0,0,0)" stroke-opacity="1" stroke-width="8" fill="rgb(0,0,0)" fill-opacity="1"></path></g></g><g><g transform="matrix(1,0,0,1,633.4624633789062,243.14999389648438)"><path transform="matrix(0.017,0,0,-0.017,0,0)" d="M336 -238C336 -233 334 -228 331 -226C229 -149 160 49 160 208L160 292C160 451 229 649 331 726C334 728 336 733 336 738C336 746 330 752 322 752C318 752 315 751 313 750C202 666 96 465 96 292L96 208C96 35 202 -166 313 -250C315 -251 318 -252 322 -252C330 -252 336 -246 336 -238Z" stroke="rgb(0,0,0)" stroke-opacity="1" stroke-width="8" fill="rgb(0,0,0)" fill-opacity="1"></path></g></g><g><g transform="matrix(1,0,0,1,640.0874633789062,243.14999389648438)"><path transform="matrix(0.017,0,0,-0.017,0,0)" d="M685 448C687 448 689 449 689 452L670 677C670 679 668 682 666 682L55 682C53 682 51 679 51 677L32 452C32 450 33 448 36 448L61 448C63 448 65 450 65 452C79 612 92 642 241 642C259 642 285 642 294 640C312 637 312 629 312 606L312 79C312 48 316 36 211 36L171 36C169 36 166 34 166 31L166 0C166 -3 168 -4 171 -4C212 -1 314 -2 360 -2C406 -2 509 -1 550 -4C553 -4 554 -3 554 0L554 31C554 33 553 36 550 36L510 36C405 36 410 48 410 79L410 606C410 627 410 637 424 640C434 642 461 642 480 642C629 642 642 612 656 452C656 450 658 448 660 448ZM866 -2L977 -4C979 -4 982 -3 982 0L982 31C982 33 980 36 977 36C909 36 904 34 904 76L904 694C904 697 902 698 899 698L755 687C753 687 750 685 750 683L750 652C750 650 752 648 755 648C824 648 828 643 828 596L828 76C828 34 823 36 755 36C753 36 750 34 750 31L750 0C750 -2 752 -4 755 -4Z" stroke="rgb(0,0,0)" stroke-opacity="1" stroke-width="8" fill="rgb(0,0,0)" fill-opacity="1"></path></g></g><g><g transform="matrix(1,0,0,1,657.0874633789062,243.14999389648438)"><path transform="matrix(0.017,0,0,-0.017,0,0)" d="M292 208L292 292C292 465 187 666 76 750C74 751 71 752 67 752C59 752 52 746 52 738C52 733 55 728 58 726C160 649 230 451 230 292L230 208C230 49 160 -149 58 -226C55 -228 52 -233 52 -238C52 -246 59 -252 67 -252C71 -252 74 -251 76 -250C187 -166 292 35 292 208Z" stroke="rgb(0,0,0)" stroke-opacity="1" stroke-width="8" fill="rgb(0,0,0)" fill-opacity="1"></path></g></g></g></g></svg>
</svg>
