<svg xmlns="http://www.w3.org/2000/svg" xmlns:xlink="http://www.w3.org/1999/xlink" x="0" y="0" width="520.4000244140625" height="235.40000915527344" style="
        width:520.4000244140625px;
        height:235.40000915527344px;
        background: transparent;
        fill: none;
">
        <svg xmlns="http://www.w3.org/2000/svg"/>
        
        <svg xmlns="http://www.w3.org/2000/svg" class="role-diagram-draw-area"><g class="shapes-region" style="stroke: black; fill: none;"><g class="grouped-shape"><g class="grouped-shape"><g class="composite-shape"><defs><!-- react-text: 30431 --> <!-- /react-text --><pattern id="_pgfh0fpz2zwi" x="0" y="0" width="11.313708498984761" height="11.313708498984761" patternTransform="rotate(45,0,0)" patternUnits="userSpaceOnUse"><path d="M0,0 L0,11.313708498984761" style="stroke: rgb(0, 0, 0); stroke-opacity: 1; stroke-width: 1; fill: none;"/><path d="M5.656854249492381,0 L5.656854249492381,11.313708498984761" style="stroke: rgb(0, 0, 0); stroke-opacity: 1; stroke-width: 1; fill: none;"/><path d="M11.313708498984761,0 L11.313708498984761,11.313708498984761" style="stroke: rgb(0, 0, 0); stroke-opacity: 1; stroke-width: 1; fill: none;"/></pattern></defs><path class="real" d=" M95,46.6 L95,86.6 L55,86.6 L55,106.6 L95,106.6 L95,146.6 L15,146.6 L15,46.6 L95,46.6 Z" style="stroke-width: 1; stroke: rgb(0, 0, 0); fill: url(&quot;#_pgfh0fpz2zwi&quot;); fill-opacity: 1;"/></g><g class="composite-shape"><defs><!-- react-text: 30440 --> <!-- /react-text --><pattern id="_pgfqtxlgpl2t" x="0" y="0" width="11.313708498984761" height="11.313708498984761" patternTransform="rotate(45,0,0)" patternUnits="userSpaceOnUse"><path d="M0,0 L0,11.313708498984761" style="stroke: rgb(0, 0, 0); stroke-opacity: 1; stroke-width: 1; fill: none;"/><path d="M5.656854249492381,0 L5.656854249492381,11.313708498984761" style="stroke: rgb(0, 0, 0); stroke-opacity: 1; stroke-width: 1; fill: none;"/><path d="M11.313708498984761,0 L11.313708498984761,11.313708498984761" style="stroke: rgb(0, 0, 0); stroke-opacity: 1; stroke-width: 1; fill: none;"/></pattern></defs><path class="real" d=" M95,26.6 L125,26.6 L125,86.6 L95,86.6 Z" style="stroke-width: 1; stroke: rgb(0, 0, 0); fill: url(&quot;#_pgfqtxlgpl2t&quot;); fill-opacity: 1;"/></g><g class="composite-shape"><defs><!-- react-text: 30448 --> <!-- /react-text --><pattern id="_pgfbk7b3afei" x="0" y="0" width="11.313708498984761" height="11.313708498984761" patternTransform="rotate(45,0,0)" patternUnits="userSpaceOnUse"><path d="M0,0 L0,11.313708498984761" style="stroke: rgb(0, 0, 0); stroke-opacity: 1; stroke-width: 1; fill: none;"/><path d="M5.656854249492381,0 L5.656854249492381,11.313708498984761" style="stroke: rgb(0, 0, 0); stroke-opacity: 1; stroke-width: 1; fill: none;"/><path d="M11.313708498984761,0 L11.313708498984761,11.313708498984761" style="stroke: rgb(0, 0, 0); stroke-opacity: 1; stroke-width: 1; fill: none;"/></pattern></defs><path class="real" d=" M95,106.6 L125,106.6 L125,166.6 L95,166.6 Z" style="stroke-width: 1; stroke: rgb(0, 0, 0); fill: url(&quot;#_pgfbk7b3afei&quot;); fill-opacity: 1;"/></g><g class="composite-shape"><path class="real" d=" M50,96.6 C50,93.84 52.24,91.6 55,91.6 C57.76,91.6 60,93.84 60,96.6 C60,99.36 57.76,101.6 55,101.6 C52.24,101.6 50,99.36 50,96.6 Z" style="stroke-width: 1; stroke: rgb(0, 0, 0); fill: rgb(0, 0, 0); fill-opacity: 1;"/></g><g class="arrow-line"><path class="connection real" stroke-dasharray="2.25 3.685" d="  M55,96.6 L84.84,77.4" style="stroke: rgb(0, 0, 0); stroke-width: 2; fill: none; fill-opacity: 1;"/></g><g class="arrow-line"><path class="connection real" stroke-dasharray="2.25 3.685" d="  M55,96.6 L46.04,126.2" style="stroke: rgb(0, 0, 0); stroke-width: 2; fill: none; fill-opacity: 1;"/></g><g class="arrow-line"><path class="connection real" stroke-dasharray="2.25 3.685" d="  M55,96.6 L89.64,99" style="stroke: rgb(0, 0, 0); stroke-width: 2; fill: none; fill-opacity: 1;"/></g><g class="arrow-line"><path class="connection real" stroke-dasharray="2.25 3.685" d="  M55,96.6 L82.07,112.87" style="stroke: rgb(0, 0, 0); stroke-width: 2; fill: none; fill-opacity: 1;"/></g></g><g class="grouped-shape"><g class="composite-shape"><defs><!-- react-text: 30471 --> <!-- /react-text --><pattern id="_pgfhxzm8gimy" x="0" y="0" width="11.313708498984761" height="11.313708498984761" patternTransform="rotate(45,0,0)" patternUnits="userSpaceOnUse"><path d="M0,0 L0,11.313708498984761" style="stroke: rgb(0, 0, 0); stroke-opacity: 1; stroke-width: 1; fill: none;"/><path d="M5.656854249492381,0 L5.656854249492381,11.313708498984761" style="stroke: rgb(0, 0, 0); stroke-opacity: 1; stroke-width: 1; fill: none;"/><path d="M11.313708498984761,0 L11.313708498984761,11.313708498984761" style="stroke: rgb(0, 0, 0); stroke-opacity: 1; stroke-width: 1; fill: none;"/></pattern></defs><path class="real" d=" M315,26.6 L345,26.6 L345,86.6 L315,86.6 Z" style="stroke-width: 1; stroke: rgb(0, 0, 0); fill: url(&quot;#_pgfhxzm8gimy&quot;); fill-opacity: 1;"/></g><g class="composite-shape"><defs><!-- react-text: 30479 --> <!-- /react-text --><pattern id="_pgfpt8ixm1y1" x="0" y="0" width="11.313708498984761" height="11.313708498984761" patternTransform="rotate(45,0,0)" patternUnits="userSpaceOnUse"><path d="M0,0 L0,11.313708498984761" style="stroke: rgb(0, 0, 0); stroke-opacity: 1; stroke-width: 1; fill: none;"/><path d="M5.656854249492381,0 L5.656854249492381,11.313708498984761" style="stroke: rgb(0, 0, 0); stroke-opacity: 1; stroke-width: 1; fill: none;"/><path d="M11.313708498984761,0 L11.313708498984761,11.313708498984761" style="stroke: rgb(0, 0, 0); stroke-opacity: 1; stroke-width: 1; fill: none;"/></pattern></defs><path class="real" d=" M315,106.6 L345,106.6 L345,166.6 L315,166.6 Z" style="stroke-width: 1; stroke: rgb(0, 0, 0); fill: url(&quot;#_pgfpt8ixm1y1&quot;); fill-opacity: 1;"/></g><g class="composite-shape"><defs><!-- react-text: 30487 --> <!-- /react-text --><pattern id="_pgf94n3ahtmy" x="0" y="0" width="11.313708498984761" height="11.313708498984761" patternTransform="rotate(45,0,0)" patternUnits="userSpaceOnUse"><path d="M0,0 L0,11.313708498984761" style="stroke: rgb(0, 0, 0); stroke-opacity: 1; stroke-width: 1; fill: none;"/><path d="M5.656854249492381,0 L5.656854249492381,11.313708498984761" style="stroke: rgb(0, 0, 0); stroke-opacity: 1; stroke-width: 1; fill: none;"/><path d="M11.313708498984761,0 L11.313708498984761,11.313708498984761" style="stroke: rgb(0, 0, 0); stroke-opacity: 1; stroke-width: 1; fill: none;"/></pattern></defs><path class="real" d=" M382.8,46.6 L382.8,76.6 L345,76.6 L345,46.6 L382.8,46.6 Z  M382.8,146.6 L345,146.6 L345,116.6 L382.8,116.6 L382.8,146.6 Z" style="stroke-width: 1; stroke: rgb(0, 0, 0); fill: url(&quot;#_pgf94n3ahtmy&quot;); fill-opacity: 1;"/></g><g class="composite-shape"><path class="real" d=" M345,76.6 L415,76.6 L415,116.6 L345,116.6 Z" style="stroke-width: 1; stroke: rgb(0, 0, 0); fill: none; fill-opacity: 1;"/></g></g><g class="arrow-line"><path class="connection real" stroke-dasharray="1.125 3.35" d="  M55,96.6 L345,96.6" style="stroke: rgb(0, 0, 0); stroke-width: 1; fill: none; fill-opacity: 1;"/></g><g class="composite-shape"><path class="real" d=" M175,46.6 L185,46.6 L185,146.6 L175,146.6 Z" style="stroke-width: 1; stroke: rgb(0, 0, 0); fill: none; fill-opacity: 1;"/></g><g class="composite-shape"><path class="real" d=" M215,46.6 L225,46.6 L225,146.6 L215,146.6 Z" style="stroke-width: 1; stroke: rgb(0, 0, 0); fill: none; fill-opacity: 1;"/></g><g class="composite-shape"><path class="real" d=" M185,46.6 L195,46.6 L195,146.6 L185,146.6 Z" style="stroke-width: 1; stroke: rgb(0, 0, 0); fill: none; fill-opacity: 1;"/></g><g class="composite-shape"><path class="real" d=" M195,46.6 L205,46.6 L205,146.6 L195,146.6 Z" style="stroke-width: 1; stroke: rgb(0, 0, 0); fill: none; fill-opacity: 1;"/></g><g class="composite-shape"><path class="real" d=" M205,46.6 L215,46.6 L215,146.6 L205,146.6 Z" style="stroke-width: 1; stroke: rgb(0, 0, 0); fill: none; fill-opacity: 1;"/></g><g class="arrow-line"><path class="connection real" stroke-dasharray="" d="  M195,176.6 L195,149.6" style="stroke: rgb(0, 0, 0); stroke-width: 1; fill: none; fill-opacity: 1;"/><g stroke="none" fill="#000" transform="matrix(3.061616997868383e-16,1,-1,3.061616997868383e-16,195,146.60000610351562)" style="stroke: none; fill: rgb(0, 0, 0); stroke-width: 1;"><path d=" M8.93,-4.29 L0,0 L8.93,4.29 Z"/></g></g><g class="arrow-line"><path class="connection real" stroke-dasharray="" d="  M73.8,160.5 L55.99,109.43" style="stroke: rgb(0, 0, 0); stroke-width: 1; fill: none; fill-opacity: 1;"/><g stroke="none" fill="#000" transform="matrix(0.32936107594682223,0.9442040466187124,-0.9442040466187124,0.32936107594682223,55,106.60000610351562)" style="stroke: none; fill: rgb(0, 0, 0); stroke-width: 1;"><path d=" M8.93,-4.29 L0,0 L8.93,4.29 Z"/></g></g><g class="arrow-line"><path class="connection real" stroke-dasharray="" d="  M35,26.6 L55,26.6 L55,43.6" style="stroke: rgb(0, 0, 0); stroke-width: 1; fill: none; fill-opacity: 1;"/><g stroke="none" fill="#000" transform="matrix(-1.8369701987210297e-16,-1,1,-1.8369701987210297e-16,55,46.60000610351562)" style="stroke: none; fill: rgb(0, 0, 0); stroke-width: 1;"><path d=" M8.93,-4.29 L0,0 L8.93,4.29 Z"/></g></g><g class="arrow-line"><path class="connection real" stroke-dasharray="" d="  M160.8,10.5 L127.42,34.83" style="stroke: rgb(0, 0, 0); stroke-width: 1; fill: none; fill-opacity: 1;"/><g stroke="none" fill="#000" transform="matrix(0.8080927057548839,-0.5890553275421169,0.5890553275421169,0.8080927057548839,125.00000000000003,36.600006103515625)" style="stroke: none; fill: rgb(0, 0, 0); stroke-width: 1;"><path d=" M8.93,-4.29 L0,0 L8.93,4.29 Z"/></g></g><g class="arrow-line"><path class="connection real" stroke-dasharray="" d="  M226.8,10.5 L312.12,35.75" style="stroke: rgb(0, 0, 0); stroke-width: 1; fill: none; fill-opacity: 1;"/><g stroke="none" fill="#000" transform="matrix(-0.9589188165093672,-0.28368063618138367,0.28368063618138367,-0.9589188165093672,315.00000000000006,36.600006103515625)" style="stroke: none; fill: rgb(0, 0, 0); stroke-width: 1;"><path d=" M8.93,-4.29 L0,0 L8.93,4.29 Z"/></g></g><g class="arrow-line"><path class="connection real" stroke-dasharray="" d="  M385,26.6 L365,26.6 L365,43.6" style="stroke: rgb(0, 0, 0); stroke-width: 1; fill: none; fill-opacity: 1;"/><g stroke="none" fill="#000" transform="matrix(-1.8369701987210297e-16,-1,1,-1.8369701987210297e-16,365,46.600006103515625)" style="stroke: none; fill: rgb(0, 0, 0); stroke-width: 1;"><path d=" M8.93,-4.29 L0,0 L8.93,4.29 Z"/></g></g><g class="arrow-line"><path class="connection real" stroke-dasharray="" d="  M415,96.6 L452,96.6" style="stroke: rgb(0, 0, 0); stroke-width: 1; fill: none; fill-opacity: 1;"/><g stroke="none" fill="#000" transform="matrix(-1,1.2246467991473532e-16,-1.2246467991473532e-16,-1,455,96.60000610351562)" style="stroke: none; fill: rgb(0, 0, 0); stroke-width: 1;"><path d=" M8.93,-4.29 L0,0 L8.93,4.29 Z"/></g></g></g><g/></g><g><g class="connection-group"><g class="arrow-line"><path class="connection real" stroke-dasharray="" d="  M485,172.1 L485,199.1" style="stroke: rgb(0, 0, 0); stroke-width: 1; fill: none; fill-opacity: 1;"/><g stroke="none" fill="#000" transform="matrix(-1.8369701987210297e-16,-1,1,-1.8369701987210297e-16,485,202.10000610351557)" style="stroke: none; fill: rgb(0, 0, 0); stroke-width: 1;"><path d=" M8.93,-4.29 L0,0 L8.93,4.29 Z"/></g></g></g><g class="connection-group"><g class="arrow-line"><path class="connection real" stroke-dasharray="" d="  M485,111.1 L485,140.1" style="stroke: rgb(0, 0, 0); stroke-width: 1; fill: none; fill-opacity: 1;"/><g stroke="none" fill="#000" transform="matrix(-1.8369701987210297e-16,-1,1,-1.8369701987210297e-16,485,143.10000610351562)" style="stroke: none; fill: rgb(0, 0, 0); stroke-width: 1;"><path d=" M8.93,-4.29 L0,0 L8.93,4.29 Z"/></g></g></g></g><g><g><rect rx="0" ry="0" x="463" y="143.10000610351562" width="44" height="29" style="stroke: rgb(0, 0, 0); stroke-width: 1; fill: none; fill-opacity: 1;"/></g><g><rect rx="0" ry="0" x="454" y="202.10000610351562" width="62" height="29" style="stroke: rgb(0, 0, 0); stroke-width: 1; fill: none; fill-opacity: 1;"/></g><g><rect rx="0" ry="0" x="454" y="82.10000610351562" width="62" height="29" style="stroke: rgb(0, 0, 0); stroke-width: 1; fill: none; fill-opacity: 1;"/></g></g><g/></svg>
        <svg xmlns="http://www.w3.org/2000/svg" xmlns:xlink="http://www.w3.org/1999/xlink" width="518.7999877929688" height="233.8000030517578" style="width:518.7999877929688px;height:233.8000030517578px;font-family:ThickerLm-Math, ThickerLm, Asana-Math, Asana;background:transparent;"><g><g><g><text x="467.5" y="165.02668464978535" style="white-space:pre;stroke:none;fill:rgb(0,0,0);fill-opacity:1;font-size:18px;font-family:&quot;Computer Modern Serif&quot;, serif;font-weight:400;font-style:normal;dominant-baseline:auto;text-decoration:none solid rgb(0, 0, 0);">单道</text></g></g></g><g><g><g><text x="458.5" y="224.02665413220723" style="white-space:pre;stroke:none;fill:rgb(0,0,0);fill-opacity:1;font-size:18px;font-family:&quot;Computer Modern Serif&quot;, serif;font-weight:400;font-style:normal;dominant-baseline:auto;text-decoration:none solid rgb(0, 0, 0);">定标器</text></g></g></g><g><g><g><text x="458.5" y="104.02668464978537" style="white-space:pre;stroke:none;fill:rgb(0,0,0);fill-opacity:1;font-size:18px;font-family:&quot;Computer Modern Serif&quot;, serif;font-weight:400;font-style:normal;dominant-baseline:auto;text-decoration:none solid rgb(0, 0, 0);">放大器</text></g></g></g><g><g><g><text x="388.29998779296875" y="32.69332690238953" style="white-space:pre;stroke:none;fill:rgb(0,0,0);fill-opacity:1;font-size:15px;font-family:&quot;Computer Modern Serif&quot;, serif;font-weight:400;font-style:normal;dominant-baseline:auto;text-decoration:none solid rgb(0, 0, 0);">铅屏蔽</text></g></g></g><g><g><g><text x="164.2874755859375" y="16.59335131645203" style="white-space:pre;stroke:none;fill:rgb(0,0,0);fill-opacity:1;font-size:15px;font-family:&quot;Computer Modern Serif&quot;, serif;font-weight:400;font-style:normal;dominant-baseline:auto;text-decoration:none solid rgb(0, 0, 0);">铅准直器</text></g></g></g><g><g><g><text x="2.70001220703125" y="32.69332690238953" style="white-space:pre;stroke:none;fill:rgb(0,0,0);fill-opacity:1;font-size:15px;font-family:&quot;Computer Modern Serif&quot;, serif;font-weight:400;font-style:normal;dominant-baseline:auto;text-decoration:none solid rgb(0, 0, 0);">铅室</text></g></g></g><g><g><g><text x="51.7874755859375" y="177.89333910942076" style="white-space:pre;stroke:none;fill:rgb(0,0,0);fill-opacity:1;font-size:15px;font-family:&quot;Computer Modern Serif&quot;, serif;font-weight:400;font-style:normal;dominant-baseline:auto;text-decoration:none solid rgb(0, 0, 0);">放射源</text></g></g></g><g><g><g><text x="173" y="193.9933452129364" style="white-space:pre;stroke:none;fill:rgb(0,0,0);fill-opacity:1;font-size:15px;font-family:&quot;Computer Modern Serif&quot;, serif;font-weight:400;font-style:normal;dominant-baseline:auto;text-decoration:none solid rgb(0, 0, 0);">吸收片</text></g></g></g><g><g><g><text x="353.5" y="104.02668464978537" style="white-space:pre;stroke:none;fill:rgb(0,0,0);fill-opacity:1;font-size:18px;font-family:&quot;Computer Modern Serif&quot;, serif;font-weight:400;font-style:normal;dominant-baseline:auto;text-decoration:none solid rgb(0, 0, 0);">探测器</text></g></g></g></svg>
</svg>
